<?xml version="1.0" encoding="iso-8859-1"?>
<!-- Generator: Adobe Illustrator 19.0.0, SVG Export Plug-In . SVG Version: 6.00 Build 0)  -->
<svg version="1.1" id="Capa_1" xmlns="http://www.w3.org/2000/svg" xmlns:xlink="http://www.w3.org/1999/xlink" x="0px" y="0px"
	 viewBox="0 0 496 496" style="enable-background:new 0 0 496 496;" xml:space="preserve">
<g>
	<g>
		<g>
			<path d="M0,0v368h32v128h432V368h32V0H0z M448,480H48V112h400V480z M480,352h-16V96H32v256H16V80h464V352z M480,64H16V16h464V64z
				"/>
			<rect x="32" y="32" width="16" height="16"/>
			<rect x="64" y="32" width="16" height="16"/>
			<rect x="96" y="32" width="16" height="16"/>
			<path d="M240,128H64v144h176V128z M224,256H80V144h144V256z"/>
			<rect x="256" y="128" width="176" height="16"/>
			<rect x="288" y="160" width="144" height="16"/>
			<rect x="256" y="160" width="16" height="16"/>
			<rect x="256" y="192" width="176" height="16"/>
			<rect x="256" y="224" width="176" height="16"/>
			<rect x="416" y="256" width="16" height="16"/>
			<rect x="256" y="256" width="144" height="16"/>
			<path d="M344,464c48.52,0,88-39.48,88-88c0-48.52-39.48-88-88-88c-48.52,0-88,39.48-88,88C256,424.52,295.48,464,344,464z
				 M344,304c39.704,0,72,32.304,72,72s-32.296,72-72,72c-39.704,0-72-32.304-72-72S304.296,304,344,304z"/>
			<rect x="64" y="288" width="176" height="16"/>
			<rect x="96" y="320" width="144" height="16"/>
			<rect x="64" y="320" width="16" height="16"/>
			<rect x="64" y="352" width="176" height="16"/>
			<rect x="64" y="384" width="176" height="16"/>
			<rect x="64" y="416" width="176" height="16"/>
			<rect x="224" y="448" width="16" height="16"/>
			<rect x="64" y="448" width="144" height="16"/>
		</g>
	</g>
</g>
<g>
</g>
<g>
</g>
<g>
</g>
<g>
</g>
<g>
</g>
<g>
</g>
<g>
</g>
<g>
</g>
<g>
</g>
<g>
</g>
<g>
</g>
<g>
</g>
<g>
</g>
<g>
</g>
<g>
</g>
</svg>
